<svg xmlns="http://www.w3.org/2000/svg" viewBox="0 0 64 64" width="64px" height="64px">
  <g id="rocket">
    <path fill="#FF6B6B" d="M32,62C25,62,8,45,8,29.012S21.956,2,32,2s24,11.966,24,27.012C56,45,39,62,32,62z"/>
    <path fill="#333" d="M23.59,36.579L17.037,43.132c0,0-4.276,1.025-4.276,3.418c0,2.393,3.756,3.478,3.756,3.478l2.929-2.929 L23.59,36.579z M45.41,36.579l6.553,6.553c0,0,4.276,1.025,4.276,3.418c0,2.393-3.756,3.478-3.756,3.478l-2.929-2.929 L45.41,36.579z"/>
    <circle fill="#FFF" cx="32" cy="28" r="8"/>
  </g>
</svg>
